<svg xmlns="http://www.w3.org/2000/svg" width="51.394" height="51.394" viewBox="0 0 51.394 51.394"><defs><style>.a{fill:white;}</style></defs><g transform="translate(0 0)"><path class="a" d="M19.808,0H3.747A3.752,3.752,0,0,0,0,3.748v9.636a3.751,3.751,0,0,0,3.747,3.747H19.808a3.752,3.752,0,0,0,3.748-3.747V3.748A3.752,3.752,0,0,0,19.808,0ZM3.747,13.919a.536.536,0,0,1-.535-.535V3.748a.536.536,0,0,1,.535-.536H19.808a.536.536,0,0,1,.536.536v9.636a.536.536,0,0,1-.536.535Zm0,0" transform="translate(0 34.263)"/><path class="a" d="M19.808,213.332H3.747A3.751,3.751,0,0,0,0,217.079v22.485a3.752,3.752,0,0,0,3.747,3.748H19.808a3.752,3.752,0,0,0,3.748-3.748V217.079A3.752,3.752,0,0,0,19.808,213.332ZM3.747,240.1a.536.536,0,0,1-.535-.536V217.079a.536.536,0,0,1,.535-.535H19.808a.536.536,0,0,1,.536.535v22.485a.536.536,0,0,1-.536.536Zm0,0" transform="translate(0 -213.332)"/><path class="a" d="M297.14,341.332H281.08a3.752,3.752,0,0,0-3.748,3.747v9.636a3.752,3.752,0,0,0,3.748,3.748H297.14a3.752,3.752,0,0,0,3.747-3.748v-9.636A3.751,3.751,0,0,0,297.14,341.332ZM281.08,355.251a.536.536,0,0,1-.536-.536v-9.636a.536.536,0,0,1,.536-.535H297.14a.536.536,0,0,1,.535.535v9.636a.536.536,0,0,1-.535.536Zm0,0" transform="translate(-249.494 -341.332)"/><path class="a" d="M297.14,0H281.08a3.752,3.752,0,0,0-3.748,3.748V26.233a3.752,3.752,0,0,0,3.748,3.747H297.14a3.751,3.751,0,0,0,3.747-3.747V3.748A3.752,3.752,0,0,0,297.14,0ZM281.08,26.768a.536.536,0,0,1-.536-.535V3.748a.536.536,0,0,1,.536-.536H297.14a.536.536,0,0,1,.535.536V26.233a.536.536,0,0,1-.535.535Zm0,0" transform="translate(-249.494 21.414)"/></g></svg>