<svg xmlns="http://www.w3.org/2000/svg" width="63.025" height="50.715" viewBox="0 0 63.025 50.715"><defs><style>.a{fill:#171717;}</style></defs><g transform="translate(0 0)"><path class="a" d="M75.709,287.5a12.382,12.382,0,0,1-8.27-3.158A12.676,12.676,0,0,0,65,291.813v10.709a3.7,3.7,0,0,0,3.693,3.693H82.726a3.7,3.7,0,0,0,3.693-3.693V291.813a12.675,12.675,0,0,0-2.44-7.466A12.382,12.382,0,0,1,75.709,287.5Z" transform="translate(-56.999 -255.5)"/><path class="a" d="M57.486,50H5.539A5.546,5.546,0,0,0,0,55.539V83.605A5.548,5.548,0,0,0,4.308,89V86.313A16.356,16.356,0,0,1,7.981,76l.054-.063a12.433,12.433,0,1,1,21.351,0L29.44,76a16.356,16.356,0,0,1,3.673,10.313v2.831H57.486a5.546,5.546,0,0,0,5.539-5.539V55.539A5.546,5.546,0,0,0,57.486,50ZM35.452,79.3A1.846,1.846,0,1,1,37.3,77.45,1.846,1.846,0,0,1,35.452,79.3Zm0-7.878A1.846,1.846,0,1,1,37.3,69.572,1.846,1.846,0,0,1,35.452,71.419Zm0-7.878A1.846,1.846,0,1,1,37.3,61.694,1.846,1.846,0,0,1,35.452,63.541ZM53.177,79.3H43.33a1.846,1.846,0,1,1,0-3.693h9.848a1.846,1.846,0,1,1,0,3.693Zm0-7.878H43.33a1.846,1.846,0,0,1,0-3.693h9.848a1.846,1.846,0,0,1,0,3.693Zm0-7.878H43.33a1.846,1.846,0,1,1,0-3.693h9.848a1.846,1.846,0,1,1,0,3.693Z" transform="translate(0 -50)"/><ellipse class="a" cx="8.446" cy="9.096" rx="8.446" ry="9.096" transform="translate(10.395 10.435)"/></g></svg>