<svg xmlns="http://www.w3.org/2000/svg" width="102.154" height="53.205" viewBox="0 0 102.154 53.205"><defs><style>.a{fill:#000;}</style></defs><g transform="translate(0 -6.5)"><g transform="translate(76.616 12.885)"><path class="a" d="M26.513,25.026a8.513,8.513,0,1,1,8.513-8.513A8.538,8.538,0,0,1,26.513,25.026Zm0-12.769a4.021,4.021,0,0,0-4.256,4.256,4.021,4.021,0,0,0,4.256,4.256,4.021,4.021,0,0,0,4.256-4.256A4.021,4.021,0,0,0,26.513,12.256Z" transform="translate(-18 -8)"/></g><g transform="translate(76.616 34.167)"><path class="a" d="M41.41,30.026A2.011,2.011,0,0,1,39.282,27.9V23.641A6.546,6.546,0,0,0,32.9,17.256H20.128A2.011,2.011,0,0,1,18,15.128,2.011,2.011,0,0,1,20.128,13H32.9A10.538,10.538,0,0,1,43.539,23.641V27.9A2.011,2.011,0,0,1,41.41,30.026Z" transform="translate(-18 -13)"/></g><g transform="translate(8.513 12.885)"><path class="a" d="M10.513,25.026a8.513,8.513,0,1,1,8.513-8.513A8.538,8.538,0,0,1,10.513,25.026Zm0-12.769a4.021,4.021,0,0,0-4.256,4.256,4.021,4.021,0,0,0,4.256,4.256,4.021,4.021,0,0,0,4.256-4.256A4.021,4.021,0,0,0,10.513,12.256Z" transform="translate(-2 -8)"/></g><g transform="translate(0 34.167)"><path class="a" d="M2.128,30.026A2.011,2.011,0,0,1,0,27.9V23.641A10.538,10.538,0,0,1,10.641,13H23.41a2.011,2.011,0,0,1,2.128,2.128,2.011,2.011,0,0,1-2.128,2.128H10.641a6.546,6.546,0,0,0-6.385,6.385V27.9A2.011,2.011,0,0,1,2.128,30.026Z" transform="translate(0 -13)"/></g><g transform="translate(38.308 6.5)"><path class="a" d="M21.769,32.039A12.541,12.541,0,0,1,9,19.269,12.541,12.541,0,0,1,21.769,6.5,12.541,12.541,0,0,1,34.539,19.269,12.541,12.541,0,0,1,21.769,32.039Zm0-21.282a8.513,8.513,0,1,0,8.513,8.513A8.538,8.538,0,0,0,21.769,10.756Z" transform="translate(-9 -6.5)"/></g><g transform="translate(27.667 38.423)"><path class="a" d="M51.193,35.282a2.011,2.011,0,0,1-2.128-2.128V24.641a6.546,6.546,0,0,0-6.385-6.385H17.141a6.546,6.546,0,0,0-6.385,6.385v8.513a2.011,2.011,0,0,1-2.128,2.128A2.011,2.011,0,0,1,6.5,33.154V24.641A10.538,10.538,0,0,1,17.141,14H42.68A10.538,10.538,0,0,1,53.321,24.641v8.513A2.011,2.011,0,0,1,51.193,35.282Z" transform="translate(-6.5 -14)"/></g></g></svg>