<svg xmlns="http://www.w3.org/2000/svg" width="28" height="28" viewBox="0 0 28 28"><defs><style>.a{fill:#000;}</style></defs><g transform="translate(0 -0.001)"><g transform="translate(0 0.001)"><path class="a" d="M23.9,4.1A14,14,0,1,0,4.1,23.9,14,14,0,1,0,23.9,4.1ZM14,26.314A12.313,12.313,0,1,1,26.313,14,12.327,12.327,0,0,1,14,26.314Z" transform="translate(0 -0.001)"/></g><g transform="translate(5.454 13.158)"><path class="a" d="M115.975,240.579H100.569a.843.843,0,1,0,0,1.687h15.406a.843.843,0,0,0,0-1.687Z" transform="translate(-99.726 -240.579)"/></g><g transform="translate(6.578 8.519)"><path class="a" d="M134.288,155.76H121.131a.843.843,0,0,0,0,1.687h13.157a.843.843,0,1,0,0-1.687Z" transform="translate(-120.288 -155.76)"/></g><g transform="translate(6.578 17.796)"><path class="a" d="M134.288,325.4H121.131a.843.843,0,0,0,0,1.687h13.157a.843.843,0,1,0,0-1.687Z" transform="translate(-120.288 -325.397)"/></g></g></svg>