<svg xmlns="http://www.w3.org/2000/svg" width="27.396" height="34.867" viewBox="0 0 27.396 34.867"><defs><style>.a{fill:grey}</style></defs><g transform="translate(-51.2)"><g transform="translate(51.2)"><g transform="translate(0)"><path class="a" d="M77.35,12.453H76.1V11.207a11.207,11.207,0,0,0-22.414,0v1.245H52.445A1.245,1.245,0,0,0,51.2,13.7V33.622a1.245,1.245,0,0,0,1.245,1.245h24.9A1.245,1.245,0,0,0,78.6,33.622V13.7A1.245,1.245,0,0,0,77.35,12.453ZM56.181,11.207a8.717,8.717,0,1,1,17.433,0v1.245H56.181ZM76.1,32.376H53.69V14.943H76.1Z" transform="translate(-51.2)"/></g></g><g transform="translate(61.164 18.679)"><path class="a" d="M195.012,258.489a3.733,3.733,0,1,0-4.768,4.754v2.72a1.245,1.245,0,1,0,2.49,0v-2.72A3.727,3.727,0,0,0,195.012,258.489Zm-3.522,2.492a1.245,1.245,0,1,1,1.245-1.245A1.245,1.245,0,0,1,191.49,260.981Z" transform="translate(-187.756 -256)"/></g></g></svg>