<svg xmlns="http://www.w3.org/2000/svg" width="42" height="34.364" viewBox="0 0 42 34.364"><defs><style>.a{fill:#707070;}</style></defs><path class="a" d="M40.875,30.928H9.137a1.125,1.125,0,0,0-1.125,1.125V54.724a2.844,2.844,0,0,1-2.841,2.841h-.08A2.844,2.844,0,0,1,2.25,54.724V27.7H34.535a1.125,1.125,0,1,0,0-2.25H1.125A1.125,1.125,0,0,0,0,26.576V54.724a5.1,5.1,0,0,0,5.091,5.091H35.354A6.653,6.653,0,0,0,42,53.169V32.053A1.125,1.125,0,0,0,40.875,30.928Zm-11.331,2.25v8.33H26.731v-8.33ZM10.262,54.724V33.178H24.481v9.455a1.125,1.125,0,0,0,1.125,1.125h1.406v1.656H25.606a1.125,1.125,0,0,0,0,2.25h1.406v1.871H25.606a1.125,1.125,0,0,0,0,2.25h1.406v1.871H25.606a1.125,1.125,0,0,0,0,2.25h1.406v1.656H9.394A5.063,5.063,0,0,0,10.262,54.724ZM39.75,53.169a4.4,4.4,0,0,1-4.4,4.4H29.263V55.908h1.406a1.125,1.125,0,1,0,0-2.25H29.263V51.786h1.406a1.125,1.125,0,0,0,0-2.25H29.263V47.665h1.406a1.125,1.125,0,0,0,0-2.25H29.263V43.758h1.406a1.125,1.125,0,0,0,1.125-1.125V33.178H39.75Z" transform="translate(0 -25.451)"/></svg>